Coordinates
version=1
nRows=8
nColumns=36
inDegrees=yes

Units are S.I. units (second, meters, Newtons, ...)
If the header above contains a line with 'inDegrees', this indicates whether rotational values are in degrees (yes) or radians (no).

endheader
time	pelvis_tilt	pelvis_list	pelvis_rotation	pelvis_tx	pelvis_ty	pelvis_tz	hip_flexion_r	hip_adduction_r	hip_rotation_r	knee_angle_r	knee_angle_r_beta	ankle_angle_r	subtalar_angle_r	mtp_angle_r	hip_flexion_l	hip_adduction_l	hip_rotation_l	knee_angle_l	knee_angle_l_beta	ankle_angle_l	subtalar_angle_l	mtp_angle_l	lumbar_extension	lumbar_bending	lumbar_rotation	arm_flex_r	arm_add_r	arm_rot_r	elbow_flex_r	pro_sup_r	arm_flex_l	arm_add_l	arm_rot_l	elbow_flex_l	pro_sup_l
     14.96666670	     -4.74410295	     -5.32851733	     -3.67613197	      0.44450337	      0.90744518	      0.72692709	     32.99950054	      2.85386336	     -9.92093899	     22.85901029	      0.39896499	     11.09518833	     -7.78747268	     -7.49999987	      2.69288898	     -7.86631047	    -13.53425488	     27.55272307	      0.48088574	     14.01446675	    -14.29495698	     -7.49999987	      1.81386628	      7.23661149	     -2.06207412	     -7.25774881	     -8.38326749	     -6.41246949	     22.42387390	     67.74048151	      7.39147891	    -10.24403245	      9.29406212	     25.85234451	     67.36177930
     14.98333330	     -4.79285403	     -5.63788156	     -3.20223073	      0.44282216	      0.90912803	      0.72822936	     33.30631714	      3.14798381	    -10.25410427	     21.11703465	      0.36856178	     10.56676519	     -7.23121116	     -7.49999987	      2.43724866	     -8.24798553	    -13.52306880	     29.04428781	      0.50691845	     15.73218939	    -14.93162026	     -7.49999987	      1.58060041	      7.59646365	     -2.65654841	     -6.94551176	     -8.42009865	     -6.40446071	     22.17740179	     67.96446590	      7.75958546	    -10.03917077	      9.37388589	     25.84594137	     67.39986951
     15.00000000	     -4.72108884	     -6.06551249	     -2.88995505	      0.44394921	      0.91146436	      0.72975453	     33.03052478	      3.83616377	    -10.15939118	     19.39302454	      0.33847213	      9.93493793	     -6.90907625	     -7.49999987	      1.65967396	     -8.81810047	    -13.59101339	     30.30279023	      0.52888346	     16.38658536	    -14.60696790	     -7.49999987	      1.42096408	      8.11718387	     -3.26817821	     -6.16526719	     -8.57800741	     -6.28082147	     21.45779779	     68.39502393	      7.95704563	     -9.76791727	      9.42249863	     25.42569203	     67.43326982
     15.01666670	     -4.74403496	     -6.53828002	     -2.81073765	      0.44576748	      0.91351197	      0.73087962	     32.45144852	      4.79550942	     -9.56253347	     17.90309017	      0.31246787	      9.17148978	     -6.82011410	     -7.49999987	      1.00749990	     -9.52579998	    -13.71424225	     32.07364725	      0.55979075	     14.99490891	    -14.46482049	     -7.49999987	      1.58515485	      8.78813233	     -3.47445361	     -5.67432666	     -8.87298705	     -6.18822437	     21.05540392	     68.61423546	      7.92042572	     -9.25035397	      9.50729905	     25.17188080	     67.43867987
     15.03333330	     -4.50144907	     -6.95016511	     -2.85089522	      0.44597676	      0.91446364	      0.73084820	     31.37190717	      5.78380814	     -8.54825277	     16.77214085	      0.29272908	      8.06564098	     -7.41732946	     -7.49999987	      0.55950653	    -10.18950072	    -13.60976654	     34.96049423	      0.61017573	     11.48328668	    -14.81468649	     -7.49999987	      1.43769813	      9.44288430	     -3.60809325	     -4.95777005	     -9.22417167	     -5.95379475	     20.33077128	     68.99873207	      7.83593837	     -8.67645926	      9.65332366	     24.50223832	     67.46851805
     15.05000000	     -4.22084541	     -7.27734450	     -3.04057063	      0.44502670	      0.91264605	      0.73007152	     30.25926150	      6.66635938	     -7.54764753	     16.20115316	      0.28276347	      7.14654524	     -8.10023289	     -7.49999987	      0.50969669	    -10.72044041	    -13.40763551	     38.69794024	      0.67540647	      6.00059968	    -15.57523927	     -7.49999987	      1.17317240	     10.10314932	     -3.46425773	     -4.24545621	     -9.64389612	     -5.69419555	     19.72135786	     69.23303528	      7.70181084	     -8.01876692	      9.76158731	     23.80013381	     67.29224428
     15.06666670	     -4.07492369	     -7.56879069	     -3.40962380	      0.44445124	      0.90909599	      0.73006668	     29.25783273	      7.55380462	     -6.43552039	     15.99571875	      0.27917796	      6.42229647	     -9.05164134	     -7.49999987	      0.80232074	    -11.15532179	    -13.28298931	     42.81534250	      0.74726870	     -0.88234984	    -16.09054576	     -7.49999987	      0.98994937	     10.83161638	     -3.15652857	     -3.81365388	    -10.25681139	     -5.15273110	     19.54590344	     69.94212372	      7.39631405	     -7.46211597	     10.55925692	     23.23765174	     67.17035195
     15.08333330	     -3.85223715	     -7.86141489	     -3.58721715	      0.44468294	      0.90614767	      0.73167914	     28.11684484	      8.30768967	     -5.88848748	     16.01219228	      0.27946548	      6.12838910	     -9.46267498	     -7.49999987	      1.02624392	    -11.46731907	    -12.99622793	     46.63411051	      0.81391877	     -8.29167101	    -15.62583360	     -7.49999987	      0.82609401	     11.43917421	     -2.67068263	     -3.65135836	    -10.71811203	     -5.39244253	     19.51178463	     69.95940182	      7.29610745	     -6.86998671	     11.08837535	     22.62664017	     66.84613594
